<svg xmlns="http://www.w3.org/2000/svg" width="1860" height="1008" viewBox="0 0 1860 1008">
  <path id="Fill_2_Copy" data-name="Fill 2 Copy" d="M1806.885,630H1367.192c-29.33,0-53.115-28.2-53.115-63s23.785-63,53.115-63h439.693c29.33,0,53.115-28.2,53.115-63s-23.785-63-53.115-63H1631.267c29.34,0,53.12-28.2,53.12-63s-23.78-63-53.12-63H1340.192c-29.335,0-53.11-28.2-53.11-63s23.775-63,53.11-63h199.746c29.34,0,53.115-28.2,53.115-63s-23.775-63-53.115-63H53.115C23.785,0,0,28.215,0,63s23.785,63,53.115,63h91.329c-29.33,0-53.11,28.21-53.11,63s23.78,63,53.11,63h209.33c29.335,0,53.11,28.21,53.11,63s-23.775,63-53.11,63H144.444c-29.33,0-53.11,28.21-53.11,63s23.78,63,53.11,63H571.522c29.335,0,53.12,28.21,53.12,63s-23.785,63-53.12,63H144.444c-29.33,0-53.11,28.215-53.11,63s23.78,63,53.11,63h118c29.34,0,53.115,28.21,53.115,63s-23.775,63-53.115,63H53.115C23.785,882,0,910.209,0,945s23.785,63,53.115,63h1662.44c29.33,0,53.115-28.2,53.115-63s-23.785-63-53.115-63H1539.938c29.34,0,53.115-28.2,53.115-63s-23.775-63-53.115-63h266.947c29.33,0,53.115-28.2,53.115-63s-23.785-63-53.115-63" fill="#90d8f7" opacity="0.193"/>
</svg>
